<svg width="205" height="42" viewBox="0 0 205 42" fill="none" xmlns="http://www.w3.org/2000/svg">
<path d="M60.1378 28V14.9091H65.3793C66.3423 14.9091 67.1456 15.0518 67.7891 15.3374C68.4325 15.6229 68.9162 16.0192 69.2401 16.5263C69.5639 17.0291 69.7259 17.6087 69.7259 18.2649C69.7259 18.7763 69.6236 19.2259 69.419 19.6136C69.2145 19.9972 68.9332 20.3125 68.5753 20.5597C68.2216 20.8026 67.8168 20.9751 67.3608 21.0774V21.2053C67.8594 21.2266 68.326 21.3672 68.7607 21.6271C69.1996 21.8871 69.5554 22.2514 69.8281 22.7202C70.1009 23.1847 70.2372 23.7386 70.2372 24.3821C70.2372 25.0767 70.0646 25.6967 69.7195 26.2422C69.3786 26.7834 68.8736 27.2116 68.2045 27.527C67.5355 27.8423 66.7109 28 65.7308 28H60.1378ZM62.9055 25.7372H65.1619C65.9332 25.7372 66.4957 25.5902 66.8494 25.2962C67.2031 24.9979 67.38 24.6016 67.38 24.1072C67.38 23.745 67.2926 23.4254 67.1179 23.1484C66.9432 22.8714 66.6939 22.6541 66.37 22.4964C66.0504 22.3388 65.669 22.2599 65.2259 22.2599H62.9055V25.7372ZM62.9055 20.3871H64.9574C65.3366 20.3871 65.6733 20.321 65.9673 20.1889C66.2656 20.0526 66.5 19.8608 66.6705 19.6136C66.8452 19.3665 66.9325 19.0703 66.9325 18.7251C66.9325 18.2521 66.7642 17.8707 66.4276 17.581C66.0952 17.2912 65.6222 17.1463 65.0085 17.1463H62.9055V20.3871ZM72.0382 28V14.9091H80.8592V17.1911H74.8059V20.3104H80.4054V22.5923H74.8059V25.718H80.8848V28H72.0382ZM82.5611 17.1911V14.9091H93.3125V17.1911H89.3047V28H86.5689V17.1911H82.5611ZM106.515 21.4545C106.515 22.8821 106.245 24.0966 105.703 25.098C105.167 26.0994 104.434 26.8643 103.505 27.3928C102.58 27.9169 101.54 28.179 100.385 28.179C99.2219 28.179 98.1779 27.9148 97.2532 27.3864C96.3285 26.858 95.5977 26.093 95.0607 25.0916C94.5238 24.0902 94.2553 22.8778 94.2553 21.4545C94.2553 20.027 94.5238 18.8125 95.0607 17.8111C95.5977 16.8097 96.3285 16.0469 97.2532 15.5227C98.1779 14.9943 99.2219 14.7301 100.385 14.7301C101.54 14.7301 102.58 14.9943 103.505 15.5227C104.434 16.0469 105.167 16.8097 105.703 17.8111C106.245 18.8125 106.515 20.027 106.515 21.4545ZM103.709 21.4545C103.709 20.5298 103.571 19.75 103.294 19.1151C103.021 18.4801 102.635 17.9986 102.137 17.6705C101.638 17.3423 101.054 17.1783 100.385 17.1783C99.7163 17.1783 99.1325 17.3423 98.6339 17.6705C98.1353 17.9986 97.7475 18.4801 97.4705 19.1151C97.1978 19.75 97.0614 20.5298 97.0614 21.4545C97.0614 22.3793 97.1978 23.1591 97.4705 23.794C97.7475 24.429 98.1353 24.9105 98.6339 25.2386C99.1325 25.5668 99.7163 25.7308 100.385 25.7308C101.054 25.7308 101.638 25.5668 102.137 25.2386C102.635 24.9105 103.021 24.429 103.294 23.794C103.571 23.1591 103.709 22.3793 103.709 21.4545ZM120.116 19.4922H117.316C117.265 19.13 117.161 18.8082 117.003 18.527C116.845 18.2415 116.643 17.9986 116.396 17.7983C116.149 17.598 115.863 17.4446 115.539 17.3381C115.22 17.2315 114.872 17.1783 114.497 17.1783C113.82 17.1783 113.23 17.3466 112.727 17.6832C112.224 18.0156 111.834 18.5014 111.557 19.1406C111.28 19.7756 111.142 20.5469 111.142 21.4545C111.142 22.3878 111.28 23.1719 111.557 23.8068C111.838 24.4418 112.23 24.9212 112.733 25.245C113.236 25.5689 113.818 25.7308 114.478 25.7308C114.849 25.7308 115.192 25.6818 115.507 25.5838C115.827 25.4858 116.11 25.343 116.357 25.1555C116.605 24.9638 116.809 24.7315 116.971 24.4588C117.137 24.1861 117.252 23.875 117.316 23.5256L120.116 23.5384C120.044 24.1392 119.862 24.7188 119.573 25.277C119.287 25.831 118.901 26.3274 118.416 26.7663C117.934 27.201 117.359 27.5462 116.69 27.8018C116.025 28.0533 115.273 28.179 114.433 28.179C113.266 28.179 112.222 27.9148 111.301 27.3864C110.385 26.858 109.661 26.093 109.128 25.0916C108.6 24.0902 108.335 22.8778 108.335 21.4545C108.335 20.027 108.604 18.8125 109.141 17.8111C109.678 16.8097 110.406 16.0469 111.327 15.5227C112.247 14.9943 113.283 14.7301 114.433 14.7301C115.192 14.7301 115.895 14.8366 116.543 15.0497C117.195 15.2628 117.772 15.5739 118.275 15.983C118.778 16.3878 119.187 16.8842 119.502 17.4723C119.822 18.0604 120.026 18.7337 120.116 19.4922ZM124.111 28H121.145L125.664 14.9091H129.231L133.744 28H130.778L127.499 17.9006H127.396L124.111 28ZM123.926 22.8544H130.931V25.0149H123.926V22.8544ZM142.122 18.674C142.071 18.1584 141.852 17.7578 141.464 17.4723C141.076 17.1868 140.55 17.044 139.885 17.044C139.433 17.044 139.052 17.108 138.741 17.2358C138.43 17.3594 138.191 17.532 138.025 17.7536C137.863 17.9751 137.782 18.2266 137.782 18.5078C137.773 18.7422 137.822 18.9467 137.929 19.1214C138.04 19.2962 138.191 19.4474 138.383 19.5753C138.575 19.6989 138.796 19.8075 139.048 19.9013C139.299 19.9908 139.567 20.0675 139.853 20.1314L141.029 20.4126C141.6 20.5405 142.124 20.7109 142.602 20.924C143.079 21.1371 143.492 21.3991 143.842 21.7102C144.191 22.0213 144.462 22.3878 144.653 22.8097C144.849 23.2315 144.95 23.7152 144.954 24.2607C144.95 25.0618 144.745 25.7564 144.34 26.3445C143.94 26.9283 143.36 27.3821 142.602 27.706C141.847 28.0256 140.938 28.1854 139.872 28.1854C138.815 28.1854 137.895 28.0234 137.111 27.6996C136.331 27.3757 135.722 26.8963 135.283 26.2614C134.848 25.6222 134.62 24.8317 134.599 23.8899H137.277C137.307 24.3288 137.433 24.6953 137.654 24.9893C137.88 25.2791 138.18 25.4986 138.555 25.6477C138.935 25.7926 139.363 25.8651 139.84 25.8651C140.309 25.8651 140.716 25.7969 141.061 25.6605C141.411 25.5241 141.681 25.3345 141.873 25.0916C142.065 24.8487 142.161 24.5696 142.161 24.2543C142.161 23.9602 142.073 23.7131 141.898 23.5128C141.728 23.3125 141.477 23.142 141.144 23.0014C140.816 22.8608 140.413 22.733 139.936 22.6179L138.511 22.2599C137.407 21.9915 136.536 21.5717 135.896 21.0007C135.257 20.4297 134.94 19.6605 134.944 18.6932C134.94 17.9006 135.151 17.2081 135.577 16.6158C136.007 16.0234 136.597 15.5611 137.347 15.2287C138.097 14.8963 138.95 14.7301 139.904 14.7301C140.876 14.7301 141.724 14.8963 142.448 15.2287C143.177 15.5611 143.744 16.0234 144.148 16.6158C144.553 17.2081 144.762 17.8942 144.775 18.674H142.122ZM146.317 17.1911V14.9091H157.068V17.1911H153.061V28H150.325V17.1911H146.317Z" fill="#494D4B"/>
<path d="M38.125 19.8876C38.1494 23.0542 37.3397 26.1714 35.7773 28.9259C35.575 29.2837 35.3607 29.6337 35.1344 29.9759C35.0225 30.1498 34.8772 30.2998 34.7069 30.4171C34.5366 30.5345 34.3447 30.6169 34.1424 30.6595C33.94 30.7021 33.7312 30.7041 33.528 30.6655C33.3249 30.6268 33.1314 30.5482 32.9589 30.4341C32.7864 30.3201 32.6382 30.173 32.5229 30.0013C32.4077 29.8296 32.3277 29.6367 32.2875 29.4338C32.2474 29.231 32.2479 29.0222 32.2891 28.8195C32.3302 28.6168 32.4112 28.4243 32.5273 28.2532C34.0185 25.9897 34.8685 23.3644 34.9869 20.6564C35.1054 17.9484 34.4879 15.2589 33.2001 12.8738C31.9122 10.4887 30.0022 8.49708 27.673 7.11069C25.3438 5.7243 22.6824 4.99493 19.9719 5.0001C14.7617 5.01026 10.1422 7.74541 7.45703 11.8321C5.85185 14.2703 4.99768 17.1259 5.00046 20.045C5.00324 22.9641 5.86284 25.8182 7.47265 28.2532C7.70088 28.5991 7.78235 29.0216 7.69913 29.4275C7.61591 29.8335 7.37482 30.1898 7.0289 30.4181C6.68298 30.6463 6.26056 30.7278 5.85458 30.6445C5.44859 30.5613 5.09229 30.3202 4.86406 29.9743C3.07906 27.2655 2.05377 24.1272 1.89517 20.887C1.73658 17.6468 2.45049 14.4235 3.96241 11.5533C5.47433 8.68306 7.72885 6.27121 10.4907 4.56941C13.2526 2.86761 16.4205 1.93822 19.6641 1.87822C19.7781 1.87588 19.8914 1.8751 20.0047 1.8751C24.7948 1.86523 29.3932 3.75637 32.7905 7.13341C36.1877 10.5105 38.1063 15.0975 38.125 19.8876V19.8876Z" fill="#494D4B"/>
<path d="M9.06588 22.7944L11.8978 36.8819C12.0678 37.7276 12.8911 38.2753 13.7368 38.1053C14.5825 37.9353 15.1303 37.1119 14.9603 36.2663L12.1284 22.1788C11.9584 21.3331 11.135 20.7853 10.2893 20.9553C9.44363 21.1253 8.89588 21.9487 9.06588 22.7944Z" fill="#04D361"/>
<path d="M11.8438 36.5641L11.1258 36.7086C10.0589 36.9234 8.95035 36.7225 8.02674 36.147C7.10313 35.5715 6.43429 34.6648 6.15703 33.6125C6.13594 33.5313 6.11641 33.45 6.1 33.3672L5.07109 28.2555C4.84812 27.1459 5.07482 25.9931 5.70138 25.0506C6.32793 24.108 7.30307 23.4528 8.4125 23.2289L9.13047 23.0844L10.3898 29.3406L11.8438 36.5641Z" fill="#494D4B"/>
<path d="M11.8437 36.5641L11.1258 36.7086C10.0589 36.9234 8.95035 36.7225 8.02674 36.147C7.10313 35.5715 6.43429 34.6649 6.15703 33.6125C7.6744 32.2981 9.08944 30.87 10.3898 29.3407L11.8437 36.5641Z" fill="#494D4B"/>
<path d="M36.1476 27.0875L35.7773 28.9258C35.575 29.2836 35.3607 29.6336 35.1344 29.9758C35.0225 30.1497 34.8772 30.2997 34.7069 30.4171C34.5366 30.5344 34.3447 30.6168 34.1424 30.6594C33.94 30.702 33.7312 30.7041 33.528 30.6654C33.3249 30.6267 33.1314 30.5481 32.9589 30.4341C32.7864 30.3201 32.6382 30.1729 32.5229 30.0012C32.4077 29.8295 32.3276 29.6366 32.2875 29.4338C32.2474 29.2309 32.2479 29.0221 32.2891 28.8194C32.3302 28.6167 32.4112 28.4243 32.5273 28.2531C33.5865 26.6502 34.3258 24.8577 34.7047 22.9742C35.2927 23.4668 35.7371 24.1089 35.991 24.8327C36.245 25.5566 36.2991 26.3355 36.1476 27.0875Z" fill="#494D4B"/>
<path d="M34.2953 8.82971L32.0539 11.0711C30.6573 9.1825 28.836 7.64891 26.7371 6.59426C24.6383 5.53962 22.3208 4.99349 19.9719 5.00002C14.7617 5.01017 10.1422 7.74533 7.45703 11.832L5.18359 9.55861C6.82274 7.22938 8.98843 5.31984 11.5046 3.98527C14.0207 2.65069 16.8163 1.92875 19.6641 1.87814C19.7781 1.8758 19.8914 1.87502 20.0047 1.87502C22.7591 1.86885 25.4786 2.49223 27.9553 3.69756C30.4321 4.9029 32.6006 6.6583 34.2953 8.82971V8.82971Z" fill="#8257E5"/>
<path d="M27.8463 22.1635L25.0144 36.251C24.8444 37.0967 25.3921 37.9201 26.2378 38.0901C27.0835 38.2601 27.9069 37.7123 28.0769 36.8666L30.9088 22.7791C31.0788 21.9335 30.531 21.1101 29.6853 20.9401C28.8396 20.7701 28.0163 21.3178 27.8463 22.1635Z" fill="#04D361"/>
<path d="M34.9289 28.2555L33.9 33.3672C33.6766 34.4767 33.0216 35.4521 32.0791 36.0787C31.1366 36.7054 29.9838 36.9319 28.8742 36.7086L28.1562 36.5641L28.9 32.8711L30.8695 23.0844L31.5875 23.2289C32.6968 23.4531 33.672 24.108 34.2992 25.05C34.3856 25.1799 34.4646 25.3144 34.5359 25.4531C34.9817 26.3154 35.1203 27.3038 34.9289 28.2555V28.2555Z" fill="#494D4B"/>
<path d="M34.9289 28.2555L33.9 33.3672C33.6766 34.4768 33.0216 35.4521 32.0791 36.0788C31.1366 36.7054 29.9838 36.932 28.8742 36.7086L28.1562 36.5641L28.9 32.8711C31.0403 30.6086 32.9299 28.1215 34.5359 25.4531C34.9817 26.3154 35.1203 27.3039 34.9289 28.2555V28.2555Z" fill="#494D4B"/>
</svg>
